<svg xmlns="http://www.w3.org/2000/svg" xmlns:xlink="http://www.w3.org/1999/xlink" width="1280" zoomAndPan="magnify" viewBox="0 0 960 599.999999" height="800" preserveAspectRatio="xMidYMid meet" version="1.0"><defs><clipPath id="e5efe24d46"><path d="M 0 0 L 960 0 L 960 487.472656 L 0 487.472656 Z M 0 0 " clip-rule="nonzero"/></clipPath><clipPath id="8d2ea27b62"><path d="M 115 152.183594 L 131.878906 152.183594 L 131.878906 164.308594 L 115 164.308594 Z M 115 152.183594 " clip-rule="nonzero"/></clipPath></defs><g clip-path="url(#e5efe24d46)"><path fill="#ffd4a6" d="M 0 0 L 959.707031 0 L 959.707031 487.472656 L 0 487.472656 Z M 0 0 " fill-opacity="1" fill-rule="nonzero"/></g><path fill="#ffaa71" d="M 48.417969 0 L 50.648438 95.019531 L 70.640625 95.746094 C 70.640625 95.746094 72.519531 39.957031 73.761719 0 L 48.417969 0 " fill-opacity="1" fill-rule="nonzero"/><path fill="#f05c2b" d="M 70.890625 103.210938 L 70.664062 95.34375 C 70.664062 95.34375 58.808594 95.132812 50.476562 94.617188 C 49.945312 99.480469 49.9375 102.488281 49.9375 102.488281 L 70.890625 103.210938 " fill-opacity="1" fill-rule="nonzero"/><path fill="#8530f0" d="M 69.414062 102.480469 L 69.078125 102.460938 L 69.460938 95.324219 L 69.800781 95.339844 L 69.414062 102.480469 " fill-opacity="1" fill-rule="nonzero"/><path fill="#8530f0" d="M 67.613281 102.417969 L 67.273438 102.398438 L 67.65625 95.304688 L 67.996094 95.320312 L 67.613281 102.417969 " fill-opacity="1" fill-rule="nonzero"/><path fill="#8530f0" d="M 65.429688 103.144531 L 65.851562 95.277344 L 66.1875 95.296875 L 66.1875 95.304688 L 65.808594 102.386719 L 65.429688 103.144531 " fill-opacity="1" fill-rule="nonzero"/><path fill="#8530f0" d="M 64.007812 102.292969 L 63.667969 102.277344 L 64.046875 95.246094 L 64.382812 95.261719 L 64.007812 102.292969 " fill-opacity="1" fill-rule="nonzero"/><path fill="#8530f0" d="M 62.203125 102.238281 L 61.867188 102.21875 L 62.242188 95.207031 L 62.582031 95.222656 L 62.203125 102.238281 " fill-opacity="1" fill-rule="nonzero"/><path fill="#8530f0" d="M 60.398438 102.1875 L 60.0625 102.167969 L 60.4375 95.160156 L 60.777344 95.175781 L 60.398438 102.1875 " fill-opacity="1" fill-rule="nonzero"/><path fill="#8530f0" d="M 58.597656 102.140625 L 58.257812 102.121094 L 58.636719 95.105469 L 58.972656 95.121094 L 58.597656 102.140625 " fill-opacity="1" fill-rule="nonzero"/><path fill="#8530f0" d="M 56.792969 102.097656 L 56.453125 102.078125 L 56.832031 95.042969 L 57.171875 95.058594 L 56.792969 102.097656 " fill-opacity="1" fill-rule="nonzero"/><path fill="#8530f0" d="M 54.988281 102.066406 L 54.648438 102.046875 L 55.03125 94.96875 L 55.367188 94.988281 L 54.988281 102.066406 " fill-opacity="1" fill-rule="nonzero"/><path fill="#8530f0" d="M 53.183594 102.046875 L 52.84375 102.027344 L 53.226562 94.882812 L 53.566406 94.902344 L 53.183594 102.046875 " fill-opacity="1" fill-rule="nonzero"/><path fill="#8530f0" d="M 51.375 102.058594 L 51.039062 102.042969 L 51.429688 94.785156 L 51.765625 94.804688 L 51.375 102.058594 " fill-opacity="1" fill-rule="nonzero"/><path fill="#6eeaca" d="M 31.742188 147.394531 C 30.480469 148.304688 29.476562 149.773438 28.90625 151.46875 C 27.535156 155.550781 28.667969 160.941406 34.675781 162.992188 C 39.1875 164.535156 42.410156 164.316406 45.058594 163.125 C 46.371094 162.53125 47.542969 161.699219 48.660156 160.71875 C 49.535156 159.953125 50.371094 159.097656 51.21875 158.203125 C 51.351562 158.0625 51.488281 157.917969 51.628906 157.769531 C 51.882812 157.5 52.152344 157.222656 52.433594 156.929688 C 53.609375 155.714844 55.003906 154.3125 56.539062 152.84375 C 56.871094 152.527344 57.210938 152.203125 57.554688 151.878906 C 58.421875 151.070312 59.324219 150.246094 60.25 149.429688 C 61.449219 148.375 62.6875 147.332031 63.933594 146.34375 C 65.402344 145.183594 66.886719 144.097656 68.34375 143.152344 C 68.9375 142.769531 69.523438 142.40625 70.105469 142.074219 C 70.105469 142.074219 70.105469 142.074219 70.113281 142.070312 C 70.285156 141.972656 70.457031 141.875 70.632812 141.78125 C 76.160156 138.753906 75.058594 133.972656 74.074219 132.191406 C 73.574219 131.28125 73.582031 131.0625 73.074219 130.089844 C 73.074219 130.089844 73.074219 130.089844 73.070312 130.085938 C 72.480469 128.960938 71.902344 126.964844 71.511719 124.28125 C 71.414062 123.605469 71.324219 122.878906 71.253906 122.117188 C 71.164062 121.121094 71.097656 120.058594 71.0625 118.933594 C 71.039062 118.140625 71.03125 117.3125 71.039062 116.457031 C 71.046875 115.976562 71.058594 115.488281 71.074219 114.992188 C 71.160156 112.628906 71.25 111 71.238281 110.429688 C 71.226562 109.941406 71.214844 109.480469 71.199219 109.039062 C 71.109375 106.226562 70.972656 104.347656 70.886719 103.359375 C 70.882812 103.304688 70.875 103.257812 70.871094 103.210938 L 70.871094 103.207031 C 70.84375 102.898438 70.824219 102.695312 70.8125 102.597656 C 70.808594 102.550781 70.804688 102.53125 70.804688 102.53125 C 70.804688 102.53125 70.21875 102.507812 69.246094 102.472656 C 68.742188 102.453125 68.132812 102.429688 67.445312 102.40625 C 66.890625 102.386719 66.285156 102.367188 65.640625 102.34375 C 65.066406 102.324219 64.460938 102.304688 63.835938 102.285156 C 62.675781 102.25 61.453125 102.210938 60.230469 102.175781 C 59.625 102.160156 59.023438 102.144531 58.429688 102.128906 C 57.8125 102.113281 57.210938 102.101562 56.625 102.089844 C 55.996094 102.074219 55.390625 102.0625 54.820312 102.054688 C 54.171875 102.046875 53.5625 102.039062 53.011719 102.039062 C 52.308594 102.035156 51.691406 102.039062 51.207031 102.050781 C 50.554688 102.066406 50.128906 102.097656 50.011719 102.148438 C 49.992188 102.15625 49.96875 102.175781 49.949219 102.210938 C 49.949219 102.210938 49.949219 102.210938 49.945312 102.210938 C 49.363281 103.054688 49.027344 111.589844 48.960938 118.722656 C 48.960938 118.726562 48.960938 118.726562 48.960938 118.726562 C 48.945312 120.507812 48.945312 122.203125 48.960938 123.667969 C 48.976562 124.898438 49 125.964844 49.039062 126.789062 C 49.125 128.570312 47.957031 130.886719 46.171875 133.335938 C 45.234375 134.621094 44.125 135.941406 42.9375 137.238281 C 41.339844 138.984375 39.601562 140.695312 37.9375 142.222656 C 37.5 142.625 37.070312 143.011719 36.648438 143.386719 C 35.792969 144.144531 34.972656 144.839844 34.230469 145.453125 C 33.644531 145.9375 33.105469 146.367188 32.628906 146.734375 C 32.304688 146.984375 32.007812 147.203125 31.742188 147.394531 " fill-opacity="1" fill-rule="nonzero"/><path fill="#f05c2b" d="M 73.070312 130.085938 C 73.070312 130.085938 61.863281 131.835938 61.792969 133.714844 C 61.722656 135.457031 70.105469 142.074219 70.105469 142.074219 C 70.105469 142.074219 78.703125 138.988281 73.070312 130.085938 " fill-opacity="1" fill-rule="nonzero"/><path fill="#f05c2b" d="M 45.058594 163.125 C 45.058594 163.125 43.539062 157.125 38.28125 153.550781 C 34.183594 150.761719 28.90625 151.46875 28.90625 151.46875 C 28.90625 151.46875 26.835938 155.363281 29.789062 159.738281 C 32.019531 163.089844 36.519531 163.800781 36.519531 163.800781 C 36.519531 163.800781 42.082031 165.003906 45.058594 163.125 " fill-opacity="1" fill-rule="nonzero"/><path fill="#8530f0" d="M 54.796875 106.8125 C 56.714844 103.773438 59.769531 107.144531 59.769531 107.144531 C 59.769531 107.144531 63.171875 104.089844 64.75 107.417969 C 66.335938 110.765625 59.546875 113.816406 59.546875 113.816406 C 59.546875 113.816406 53.003906 109.648438 54.796875 106.8125 " fill-opacity="1" fill-rule="nonzero"/><path fill="#8530f0" d="M 67.589844 126.851562 C 67.589844 126.851562 69.902344 125.8125 71.511719 124.28125 C 71.414062 123.605469 71.324219 122.878906 71.253906 122.117188 C 71.164062 121.121094 71.097656 120.058594 71.0625 118.933594 C 69.507812 118.65625 67.8125 120.179688 67.8125 120.179688 C 67.8125 120.179688 64.757812 116.808594 62.839844 119.847656 C 61.046875 122.683594 67.589844 126.851562 67.589844 126.851562 " fill-opacity="1" fill-rule="nonzero"/><path fill="#8530f0" d="M 48.960938 118.722656 C 48.960938 118.722656 48.960938 118.726562 48.960938 118.726562 C 48.945312 120.507812 48.945312 122.203125 48.960938 123.667969 C 50.460938 125.386719 52.640625 126.777344 52.640625 126.777344 C 52.640625 126.777344 59.433594 123.726562 57.84375 120.378906 C 56.265625 117.050781 52.863281 120.105469 52.863281 120.105469 C 52.863281 120.105469 50.769531 117.796875 48.960938 118.722656 " fill-opacity="1" fill-rule="nonzero"/><path fill="#8530f0" d="M 49.242188 136.230469 C 51.160156 133.195312 54.214844 136.566406 54.214844 136.566406 C 54.214844 136.566406 57.617188 133.511719 59.195312 136.835938 C 60.78125 140.1875 53.992188 143.234375 53.992188 143.234375 C 53.992188 143.234375 47.445312 139.070312 49.242188 136.230469 " fill-opacity="1" fill-rule="nonzero"/><path fill="#8530f0" d="M 51.628906 157.769531 C 51.882812 157.5 52.152344 157.222656 52.433594 156.929688 C 53.609375 155.714844 55.003906 154.3125 56.539062 152.84375 C 56.871094 152.527344 57.210938 152.203125 57.554688 151.878906 C 57.554688 151.875 57.550781 151.871094 57.550781 151.867188 C 55.972656 148.539062 52.570312 151.59375 52.570312 151.59375 C 52.570312 151.59375 49.515625 148.222656 47.597656 151.261719 C 46.175781 153.503906 49.980469 156.582031 51.628906 157.769531 " fill-opacity="1" fill-rule="nonzero"/><path fill="#8530f0" d="M 34.230469 145.453125 C 35.488281 147.703125 38.824219 149.824219 38.824219 149.824219 C 38.824219 149.824219 45.613281 146.773438 44.023438 143.425781 C 42.445312 140.101562 39.046875 143.152344 39.046875 143.152344 C 39.046875 143.152344 38.597656 142.660156 37.9375 142.222656 C 37.5 142.625 37.070312 143.011719 36.648438 143.386719 C 35.792969 144.144531 34.972656 144.839844 34.230469 145.453125 " fill-opacity="1" fill-rule="nonzero"/><path fill="#ffaa71" d="M 86.914062 0 L 89.140625 95.019531 L 109.132812 95.746094 C 109.132812 95.746094 111.011719 39.957031 112.257812 0 L 86.914062 0 " fill-opacity="1" fill-rule="nonzero"/><path fill="#ffd400" d="M 88.589844 102.121094 L 88.871094 94.335938 C 88.871094 94.335938 101.257812 94.941406 109.617188 94.964844 C 109.675781 99.707031 109.617188 102.757812 109.617188 102.757812 L 88.589844 102.121094 " fill-opacity="1" fill-rule="nonzero"/><path fill="#53b2f0" d="M 90.066406 101.511719 L 89.621094 94.4375 L 89.957031 94.417969 L 90.402344 101.488281 L 90.066406 101.511719 " fill-opacity="1" fill-rule="nonzero"/><path fill="#53b2f0" d="M 91.875 101.5625 L 91.433594 94.535156 L 91.769531 94.515625 L 92.210938 101.539062 L 91.875 101.5625 " fill-opacity="1" fill-rule="nonzero"/><path fill="#53b2f0" d="M 94.074219 102.492188 L 93.683594 101.648438 L 93.683594 101.617188 L 93.246094 94.625 L 93.582031 94.605469 L 94.074219 102.492188 " fill-opacity="1" fill-rule="nonzero"/><path fill="#53b2f0" d="M 95.496094 101.675781 L 95.054688 94.710938 L 95.390625 94.6875 L 95.828125 101.652344 L 95.496094 101.675781 " fill-opacity="1" fill-rule="nonzero"/><path fill="#53b2f0" d="M 97.304688 101.734375 L 96.867188 94.789062 L 97.203125 94.765625 L 97.640625 101.714844 L 97.304688 101.734375 " fill-opacity="1" fill-rule="nonzero"/><path fill="#53b2f0" d="M 99.113281 101.800781 L 98.675781 94.855469 L 99.011719 94.835938 L 99.449219 101.777344 L 99.113281 101.800781 " fill-opacity="1" fill-rule="nonzero"/><path fill="#53b2f0" d="M 100.925781 101.871094 L 100.488281 94.917969 L 100.824219 94.898438 L 101.261719 101.847656 L 100.925781 101.871094 " fill-opacity="1" fill-rule="nonzero"/><path fill="#53b2f0" d="M 102.734375 101.945312 L 102.296875 94.972656 L 102.632812 94.953125 L 103.070312 101.921875 L 102.734375 101.945312 " fill-opacity="1" fill-rule="nonzero"/><path fill="#53b2f0" d="M 104.546875 102.027344 L 104.105469 95.019531 L 104.441406 94.996094 L 104.882812 102.007812 L 104.546875 102.027344 " fill-opacity="1" fill-rule="nonzero"/><path fill="#53b2f0" d="M 106.359375 102.125 L 105.914062 95.050781 L 106.25 95.027344 L 106.695312 102.105469 L 106.359375 102.125 " fill-opacity="1" fill-rule="nonzero"/><path fill="#53b2f0" d="M 108.175781 102.257812 L 107.722656 95.070312 L 108.058594 95.046875 L 108.507812 102.234375 L 108.175781 102.257812 " fill-opacity="1" fill-rule="nonzero"/><path fill="#53b2f0" d="M 128.257812 148.253906 C 129.535156 149.234375 130.554688 150.75 131.140625 152.460938 C 132.550781 156.578125 131.460938 161.824219 125.445312 163.464844 C 120.929688 164.695312 117.6875 164.273438 115.023438 162.921875 C 113.699219 162.253906 112.515625 161.355469 111.386719 160.316406 C 110.503906 159.507812 109.652344 158.609375 108.796875 157.667969 C 108.421875 157.253906 108.007812 156.808594 107.566406 156.335938 C 106.378906 155.058594 104.964844 153.585938 103.410156 152.035156 C 102.230469 150.859375 100.964844 149.640625 99.65625 148.429688 C 98.445312 147.3125 97.191406 146.203125 95.929688 145.144531 C 94.445312 143.90625 92.949219 142.738281 91.480469 141.714844 C 90.878906 141.292969 90.285156 140.898438 89.699219 140.535156 C 89.699219 140.535156 89.695312 140.53125 89.695312 140.53125 C 89.519531 140.421875 89.34375 140.316406 89.171875 140.210938 C 83.59375 136.867188 84.660156 132.21875 85.632812 130.519531 C 86.128906 129.65625 86.117188 129.4375 86.621094 128.511719 C 87.351562 127.167969 88.058594 124.472656 88.378906 120.761719 C 88.523438 119.097656 88.589844 117.230469 88.546875 115.1875 C 88.539062 114.714844 88.523438 114.234375 88.5 113.742188 C 88.398438 111.402344 88.292969 109.785156 88.300781 109.222656 C 88.308594 108.746094 88.316406 108.289062 88.328125 107.855469 C 88.394531 105.085938 88.515625 103.238281 88.59375 102.269531 C 88.597656 102.21875 88.601562 102.167969 88.605469 102.121094 C 88.632812 101.816406 88.652344 101.617188 88.664062 101.523438 C 88.667969 101.476562 88.667969 101.457031 88.667969 101.457031 C 88.667969 101.457031 108.628906 101.972656 109.539062 102.417969 C 110.449219 102.863281 110.949219 121.027344 110.722656 126.800781 C 110.652344 128.558594 111.84375 130.917969 113.65625 133.449219 C 114.609375 134.777344 115.730469 136.152344 116.933594 137.511719 C 118.980469 139.820312 121.253906 142.078125 123.300781 143.984375 C 124.847656 145.417969 126.265625 146.652344 127.367188 147.546875 C 127.695312 147.8125 127.992188 148.050781 128.257812 148.253906 " fill-opacity="1" fill-rule="nonzero"/><path fill="#ffd400" d="M 86.621094 128.511719 C 86.621094 128.511719 97.890625 130.957031 97.980469 132.816406 C 98.0625 134.539062 89.703125 140.535156 89.703125 140.535156 C 89.703125 140.535156 81.042969 136.9375 86.621094 128.511719 " fill-opacity="1" fill-rule="nonzero"/><g clip-path="url(#8d2ea27b62)"><path fill="#ffd400" d="M 115.023438 162.921875 C 115.023438 162.921875 116.5 157.101562 121.746094 153.910156 C 125.835938 151.421875 131.140625 152.460938 131.140625 152.460938 C 131.140625 152.460938 133.25 156.433594 130.324219 160.5625 C 128.113281 163.730469 123.597656 164.144531 123.597656 164.144531 C 123.597656 164.144531 118.027344 164.96875 115.023438 162.921875 " fill-opacity="1" fill-rule="nonzero"/></g><path fill="#f06930" d="M 112.402344 156.480469 C 113.167969 157.878906 112.71875 159.59375 111.402344 160.308594 L 111.386719 160.316406 C 110.503906 159.507812 109.652344 158.609375 108.796875 157.667969 C 108.421875 157.253906 108.007812 156.808594 107.566406 156.335938 C 107.800781 155.886719 108.160156 155.507812 108.628906 155.25 C 109.945312 154.535156 111.636719 155.085938 112.402344 156.480469 " fill-opacity="1" fill-rule="nonzero"/><path fill="#f06930" d="M 116.078125 146.597656 C 115.3125 145.203125 113.621094 144.652344 112.300781 145.371094 C 110.980469 146.085938 110.535156 147.800781 111.300781 149.199219 C 112.066406 150.59375 113.753906 151.144531 115.074219 150.429688 C 116.394531 149.710938 116.84375 147.996094 116.078125 146.597656 " fill-opacity="1" fill-rule="nonzero"/><path fill="#f06930" d="M 127.367188 147.546875 C 127.15625 148.15625 126.738281 148.679688 126.144531 149.003906 C 124.824219 149.722656 123.132812 149.171875 122.367188 147.777344 C 121.617188 146.402344 122.035156 144.722656 123.300781 143.984375 C 124.847656 145.417969 126.265625 146.652344 127.367188 147.546875 " fill-opacity="1" fill-rule="nonzero"/><path fill="#f06930" d="M 104.695312 148.074219 C 105.460938 149.472656 105.011719 151.1875 103.691406 151.90625 C 103.597656 151.953125 103.503906 152 103.410156 152.035156 C 102.230469 150.859375 100.964844 149.640625 99.65625 148.429688 C 99.847656 147.769531 100.28125 147.191406 100.917969 146.847656 C 102.238281 146.128906 103.929688 146.679688 104.695312 148.074219 " fill-opacity="1" fill-rule="nonzero"/><path fill="#f06930" d="M 107.472656 137.84375 C 106.707031 136.449219 105.019531 135.898438 103.699219 136.613281 C 102.378906 137.332031 101.929688 139.046875 102.695312 140.445312 C 103.460938 141.839844 105.152344 142.390625 106.472656 141.671875 C 107.792969 140.957031 108.242188 139.242188 107.472656 137.84375 " fill-opacity="1" fill-rule="nonzero"/><path fill="#f06930" d="M 116.933594 137.511719 C 116.707031 138.023438 116.320312 138.464844 115.796875 138.75 C 114.476562 139.46875 112.789062 138.917969 112.023438 137.519531 C 111.253906 136.125 111.703125 134.410156 113.023438 133.691406 C 113.226562 133.582031 113.441406 133.5 113.65625 133.449219 C 114.609375 134.777344 115.730469 136.152344 116.933594 137.511719 " fill-opacity="1" fill-rule="nonzero"/><path fill="#f06930" d="M 96.382812 141.71875 C 97.03125 142.898438 96.8125 144.304688 95.929688 145.144531 C 94.445312 143.90625 92.949219 142.738281 91.480469 141.714844 C 91.707031 141.203125 92.089844 140.769531 92.609375 140.488281 C 93.925781 139.769531 95.617188 140.320312 96.382812 141.71875 " fill-opacity="1" fill-rule="nonzero"/><path fill="#f06930" d="M 109.828125 126.300781 C 109.0625 124.902344 107.371094 124.351562 106.050781 125.070312 C 104.730469 125.789062 104.285156 127.503906 105.050781 128.902344 C 105.816406 130.296875 107.503906 130.847656 108.824219 130.128906 C 110.144531 129.410156 110.59375 127.699219 109.828125 126.300781 " fill-opacity="1" fill-rule="nonzero"/><path fill="#f06930" d="M 97.917969 124.792969 C 97.152344 123.394531 95.460938 122.847656 94.144531 123.5625 C 92.824219 124.28125 92.375 125.996094 93.140625 127.394531 C 93.90625 128.789062 95.597656 129.339844 96.917969 128.621094 C 98.234375 127.90625 98.683594 126.191406 97.917969 124.792969 " fill-opacity="1" fill-rule="nonzero"/><path fill="#f06930" d="M 91.359375 116.71875 C 92.125 118.113281 91.675781 119.828125 90.359375 120.546875 C 89.734375 120.886719 89.03125 120.941406 88.378906 120.761719 C 88.523438 119.097656 88.589844 117.230469 88.546875 115.1875 C 89.640625 115.074219 90.773438 115.644531 91.359375 116.71875 " fill-opacity="1" fill-rule="nonzero"/><path fill="#f06930" d="M 104.40625 117.980469 C 103.644531 116.582031 101.953125 116.03125 100.632812 116.75 C 99.3125 117.464844 98.863281 119.179688 99.628906 120.578125 C 100.394531 121.976562 102.085938 122.523438 103.40625 121.808594 C 104.726562 121.089844 105.175781 119.375 104.40625 117.980469 " fill-opacity="1" fill-rule="nonzero"/><path fill="#f06930" d="M 98.179688 110.714844 C 97.414062 109.316406 95.722656 108.765625 94.40625 109.484375 C 93.085938 110.203125 92.636719 111.917969 93.402344 113.3125 C 94.167969 114.710938 95.859375 115.261719 97.179688 114.542969 C 98.496094 113.824219 98.945312 112.109375 98.179688 110.714844 " fill-opacity="1" fill-rule="nonzero"/><path fill="#f06930" d="M 109.84375 110.933594 C 109.078125 109.539062 107.386719 108.988281 106.070312 109.707031 C 104.75 110.421875 104.300781 112.136719 105.066406 113.535156 C 105.832031 114.929688 107.523438 115.480469 108.84375 114.765625 C 110.160156 114.046875 110.609375 112.332031 109.84375 110.933594 " fill-opacity="1" fill-rule="nonzero"/><path fill="#f06930" d="M 91.292969 103.808594 C 92.058594 105.207031 91.609375 106.921875 90.289062 107.636719 C 89.671875 107.972656 88.972656 108.03125 88.328125 107.855469 C 88.394531 105.085938 88.515625 103.238281 88.59375 102.269531 C 89.648438 102.203125 90.726562 102.773438 91.292969 103.808594 " fill-opacity="1" fill-rule="nonzero"/><path fill="#f06930" d="M 104.132812 104.191406 C 103.367188 102.792969 101.679688 102.242188 100.359375 102.960938 C 99.039062 103.679688 98.589844 105.394531 99.355469 106.789062 C 100.121094 108.1875 101.8125 108.738281 103.132812 108.019531 C 104.453125 107.300781 104.898438 105.585938 104.132812 104.191406 " fill-opacity="1" fill-rule="nonzero"/></svg>