<svg xmlns="http://www.w3.org/2000/svg" enable-background="new 0 0 48 48" viewBox="0 0 48 48" id="credit-card"><path fill="#FCE38A" d="M15,29.7v2.6c0,0.4-0.3,0.7-0.7,0.7H7.7C7.3,33,7,32.7,7,32.3v-2.6C7,29.3,7.3,29,7.7,29h6.6
		C14.7,29,15,29.3,15,29.7z"></path><path fill="#95E1D3" d="M3,17v18.8C3,37,4,38,5.3,38h37.5c1.2,0,2.3-1,2.3-2.3V17H3z M17,32.3c0,1.5-1.2,2.7-2.7,2.7H7.7
		C6.2,35,5,33.8,5,32.3v-2.6C5,28.2,6.2,27,7.7,27h6.6c1.5,0,2.7,1.2,2.7,2.7V32.3z M17,25H6c-0.5,0-1-0.5-1-1s0.5-1,1-1h11
		c0.5,0,1,0.5,1,1S17.5,25,17,25z M24,21H6c-0.5,0-1-0.5-1-1s0.5-1,1-1h18c0.5,0,1,0.5,1,1S24.5,21,24,21z"></path><path fill="#FCE38A" d="M45,12.3V15H3v-2.8C3,11,4,10,5.3,10h37.5C44,10,45,11,45,12.3z"></path><path fill="#2F4B49" d="M42.8 8H5.3C2.9 8 1 9.9 1 12.3V16c0-.6.4-1 1-1h1v-2.8C3 11 4 10 5.3 10h37.5c1.2 0 2.3 1 2.3 2.3V15h1c.6 0 1 .4 1 1v-3.8C47 9.9 45.1 8 42.8 8zM46 17h-1v18.8c0 1.2-1 2.3-2.3 2.3H5.3C4 38 3 37 3 35.8V17H2c-.6 0-1-.4-1-1v19.8C1 38.1 2.9 40 5.3 40h37.5c2.3 0 4.3-1.9 4.3-4.3V16C47 16.6 46.6 17 46 17z"></path><rect width="42" height="2" x="3" y="15" fill="#2F4B49"></rect><path fill="#2F4B49" d="M2 17h1v-2H2c-.6 0-1 .4-1 1S1.4 17 2 17zM46 15h-1v2h1c.6 0 1-.4 1-1S46.6 15 46 15z"></path><path fill="#FCE38A" d="M8,29v4H7.7C7.3,33,7,32.7,7,32.3v-2.6C7,29.3,7.3,29,7.7,29H8z"></path><path fill="#FFF" d="M8 10v5H3v-2.8C3 11 4 10 5.3 10H8zM8 17v21H5.3C4 38 3 37 3 35.8V17H8z"></path><path fill="#8DC4BC" d="M45,17v18.8c0,1.2-1,2.3-2.3,2.3H41V17H45z"></path><path fill="#E4CE7E" d="M45,12.3V15h-4v-5h1.8C44,10,45,11,45,12.3z"></path><path fill="#2F4B49" d="M7.7 35h6.6c1.5 0 2.7-1.2 2.7-2.7v-2.6c0-1.5-1.2-2.7-2.7-2.7H7.7C6.2 27 5 28.2 5 29.7v2.6C5 33.8 6.2 35 7.7 35zM7 29.7C7 29.3 7.3 29 7.7 29h6.6c.4 0 .7.3.7.7v2.6c0 .4-.3.7-.7.7H7.7C7.3 33 7 32.7 7 32.3V29.7zM6 21h18c.6 0 1-.4 1-1s-.4-1-1-1H6c-.6 0-1 .4-1 1S5.4 21 6 21zM6 25h11c.6 0 1-.4 1-1s-.4-1-1-1H6c-.6 0-1 .4-1 1S5.4 25 6 25z"></path></svg>