<svg xmlns="http://www.w3.org/2000/svg" viewBox="0 0 64 64" id="credit-card"><rect width="58" height="38" x="3" y="13.5" fill="#78b75b" rx="4"></rect><path fill="#669e4f" d="M7 43V13.5a4 4 0 0 0-4 4v30a4 4 0 0 0 4 4h50a4 4 0 0 0 4-4V47H11a4 4 0 0 1-4-4Z"></path><rect width="10" height="8" x="9" y="39" fill="#facf5b" rx="2"></rect><path fill="#f0af4c" d="M13.5 44.5a2 2 0 0 1-2-2V39H11a2 2 0 0 0-2 2v4a2 2 0 0 0 2 2h6a2 2 0 0 0 2-2v-.5Z"></path><path fill="#f7fcff" d="M9 30h35v4H9z"></path><path fill="#d7e6ef" d="M11 30H9v4h35v-2H13a2 2 0 0 1-2-2Z"></path><path fill="#545a6d" d="M3 18h58v8H3z"></path><path fill="#44394a" d="M3 18h4v8H3z"></path><path fill="#f7fcff" d="M25 42h30a1 1 0 0 0 0-2H25a1 1 0 0 0 0 2zm30 2H25a1 1 0 0 0 0 2h30a1 1 0 0 0 0-2z"></path></svg>