<svg xmlns="http://www.w3.org/2000/svg" viewBox="0 0 128 128" id="credit-card"><path fill="#cad4e2" d="M7.3,33.72V94.28a5.81,5.81,0,0,0,5.8,5.81H114.9a5.81,5.81,0,0,0,5.8-5.81V33.72a5.8,5.8,0,0,0-5.8-5.81H13.1A5.8,5.8,0,0,0,7.3,33.72Z"></path><rect width="113.4" height="11.61" x="7.3" y="42.49" fill="#7a7abf"></rect><circle cx="97.29" cy="77.09" r="10.45" fill="#ffdd09" transform="rotate(-9.2 97.79 77.351)"></circle><circle cx="82.66" cy="77.09" r="10.45" fill="#e39707" transform="rotate(-9.2 83.102 77.36)"></circle><path fill="#5555a1" d="M56.67 73.28H20.26a1.5 1.5 0 010-3H56.67a1.5 1.5 0 010 3zM56.67 83.9H20.26a1.5 1.5 0 010-3H56.67a1.5 1.5 0 010 3z"></path></svg>