<svg xmlns="http://www.w3.org/2000/svg" enable-background="new 0 0 51 51" viewBox="0 0 51 51" id="credit-card"><path fill="#F05B76" d="M49.5,12.68102v25.6377c0,1.21017-0.98657,2.19674-2.19674,2.19674H3.69675
				c-1.22334,0-2.19674-0.98657-2.19674-2.19674v-25.6377c0-1.21017,0.9734-2.19674,2.19674-2.19674h43.6065
				c0.40778,0,0.78923,0.11834,1.11808,0.31569C49.06588,11.16824,49.5,11.87863,49.5,12.68102z"></path><path fill="#010101" d="M49.5,12.68102v25.6377c0,1.21017-0.98657,2.19674-2.19674,2.19674H3.69675
				c-1.22334,0-2.19674-0.98657-2.19674-2.19674v-0.9339H17.8902c15.50896,0,28.45273-11.61526,30.53114-26.58485
				C49.06588,11.16824,49.5,11.87863,49.5,12.68102z" opacity=".1"></path><rect width="48" height="6.077" x="1.5" y="16.27" fill="#3F5176"></rect><path fill="#F5C560" d="M17.77728,27.8579H7.07855c-0.53821,0-0.97455,0.43628-0.97455,0.97455v6.10443
			c0,0.53827,0.43634,0.97455,0.97455,0.97455h10.69873c0.53827,0,0.97455-0.43628,0.97455-0.97455v-6.10443
			C18.75183,28.29418,18.31555,27.8579,17.77728,27.8579z"></path><path fill="#DAEAF8" d="M44.896 33.20168v2.27575c0 .23677-.19735.43403-.43412.43403H27.69016c-.24993 0-.4472-.19727-.4472-.43403v-2.27575c0-.23677.19727-.43403.4472-.43403h16.77172C44.69865 32.76765 44.896 32.96491 44.896 33.20168zM44.896 27.42701v2.27575c0 .23677-.19735.43403-.43412.43403H34.26731c-.24994 0-.4472-.19727-.4472-.43403v-2.27575c0-.23677.19727-.43403.4472-.43403h10.19457C44.69865 26.99297 44.896 27.19024 44.896 27.42701z"></path><path fill="#2A3D66" d="M47.30322,41.51561H3.69678c-1.7627,0-3.19678-1.43408-3.19678-3.19678v-25.6377
				c0-1.7627,1.43408-3.19678,3.19678-3.19678h43.60645c1.7627,0,3.19678,1.43408,3.19678,3.19678v25.6377
				C50.5,40.08153,49.06592,41.51561,47.30322,41.51561z M3.69678,11.48436c-0.65967,0-1.19678,0.53711-1.19678,1.19678v25.6377
				c0,0.66016,0.53711,1.19678,1.19678,1.19678h43.60645c0.65967,0,1.19678-0.53662,1.19678-1.19678v-25.6377
				c0-0.65967-0.53711-1.19678-1.19678-1.19678H3.69678z"></path></svg>