<svg xmlns="http://www.w3.org/2000/svg" xml:space="preserve" width="2.66666in" height="2.66666in" version="1.1" style="shape-rendering:geometricPrecision; text-rendering:geometricPrecision; image-rendering:optimizeQuality; fill-rule:evenodd; clip-rule:evenodd" viewBox="0 0 2666.66 2666.66" xmlns:xlink="http://www.w3.org/1999/xlink" xmlns:xodm="http://www.corel.com/coreldraw/odm/2003">
 <defs>
  <style type="text/css">
   
    .fil1 {fill:#FEFEFE}
    .fil0 {fill:#5E162A}
   
  </style>
 </defs>
 <g id="Layer_x0020_1">
  <metadata id="CorelCorpID_0Corel-Layer"></metadata>
  <circle class="fil0" cx="1333.33" cy="1333.33" r="1333.33" id="id_105" style="fill: rgb(199, 199, 199);"></circle>
  <path class="fil1" d="M783.06 656.22l-266.93 0c-48.17,0 -48.17,-73.15 0,-73.15l293.86 0c15.99,0 30.24,10.39 34.99,25.68l149.76 481.27 -76.66 0 -135.02 -433.8z" id="id_106" style="fill: rgb(237, 217, 33);"></path>
  <path class="fil1" d="M1983.08 1637.74l-882.55 0c-8.72,0 -16.48,-5.68 -19.12,-14.13l-62.03 -202.42 1041.08 0 -57.99 202.14c-2.63,8.59 -10.39,14.41 -19.39,14.41zm-975.97 -256.59l-77.1 -251.6 1214.11 0 -72.17 251.6 -1064.83 0zm-89.29 -291.36l-58.5 -190.92c-3.79,-12.58 5.3,-25.77 19.12,-25.77l1216.73 0c138.44,0 83.84,134.82 60.36,216.69l-1237.7 0z" id="id_107"></path>
  <path class="fil1" d="M1983.08 1854.98l-897.79 0c-75.54,0 -136.89,-77.97 -136.89,-153.51 0,-75.54 61.35,-136.88 136.89,-136.88l881.16 0c48.13,0 48.12,73.15 0,73.15l-881.16 0c-35.15,0 -63.73,28.57 -63.73,63.73 0,35.16 28.57,80.36 63.73,80.36l897.79 0c48.05,0 48.18,73.15 0,73.15z" id="id_108" style="fill: rgb(255, 255, 255);"></path>
  <path class="fil1" d="M1268.45 2083.59c-83.16,0 -150.87,-67.72 -150.87,-150.88 0,-83.16 67.72,-150.88 150.87,-150.88 83.16,0 150.87,67.72 150.87,150.88 0,83.16 -67.71,150.88 -150.87,150.88zm0 -228.6c-42.84,0 -77.72,34.87 -77.72,77.72 0,42.91 34.81,77.73 77.72,77.73 42.92,0 77.72,-34.81 77.72,-77.73 0,-42.85 -34.88,-77.72 -77.72,-77.72zm529.25 228.6c-83.16,0 -150.88,-67.72 -150.88,-150.88 0,-83.16 67.72,-150.88 150.88,-150.88 83.16,0 150.88,67.72 150.88,150.88 0,83.22 -67.65,150.88 -150.88,150.88zm0 -228.6c-42.84,0 -77.72,34.87 -77.72,77.72 0,42.91 34.81,77.73 77.72,77.73 42.91,0 77.73,-34.81 77.73,-77.73 0,-42.91 -34.81,-77.72 -77.73,-77.72z" id="id_109" style="fill: rgb(183, 157, 237);"></path>
 </g>
</svg>