<svg xmlns="http://www.w3.org/2000/svg" xml:space="preserve" width="3in" height="3in" style="shape-rendering:geometricPrecision; text-rendering:geometricPrecision; image-rendering:optimizeQuality; fill-rule:evenodd; clip-rule:evenodd" viewBox="0 0 3 3" xmlns:xlink="http://www.w3.org/1999/xlink">
 <defs>
  <style type="text/css">
   
    .fil1 {fill:#022A32}
    .fil0 {fill:#B3EAA8}
    .fil2 {fill:#DB5656}
   
  </style>
 </defs>
 <g id="Layer_x0020_1">
  <metadata id="CorelCorpID_0Corel-Layer"></metadata>
  <circle class="fil0" cx="1.5" cy="1.5" r="1.5" id="id_101" style="fill: rgb(201, 201, 201);"></circle>
  <path class="fil1" d="M1.49999 2.3532c-0.00707087,0 -0.0138622,-0.00279921 -0.0188583,-0.0078189l-0.109535 -0.109551c-0.0147756,-0.0147756 -0.0299961,-0.0299094 -0.0455472,-0.0453937 -0.27311,-0.271701 -0.647157,-0.643835 -0.647157,-1.04228 0,-0.276441 0.224894,-0.501346 0.50135,-0.501346 0.128543,0 0.233429,0.0372559 0.319752,0.113728 0.0863307,-0.0764882 0.191217,-0.113728 0.319768,-0.113728 0.276441,0 0.50135,0.22489 0.50135,0.501346 0,0.398465 -0.374047,0.770583 -0.647169,1.0423 -0.0155512,0.0154685 -0.0307717,0.0306024 -0.0455433,0.0453819l-0.109551 0.109551c-0.005,0.00501575 -0.0117913,0.00781496 -0.0188583,0.00781496zm-0.319752 -1.65304c-0.247043,0 -0.448028,0.20098 -0.448028,0.448024 0,0.376283 0.364953,0.739362 0.631437,1.00447 0.0155945,0.0155118 0.0308425,0.0306772 0.0456654,0.0454961l0.0906772 0.0906772 0.0906929 -0.0906772c0.0147992,-0.0148031 0.0300512,-0.0299803 0.0456299,-0.0454803 0.266484,-0.265118 0.631465,-0.628197 0.631465,-1.00448 0,-0.247043 -0.20098,-0.448028 -0.448028,-0.448028 -0.125008,0 -0.220685,0.0368307 -0.301071,0.115898 -0.0103858,0.0101929 -0.0270236,0.0101929 -0.0373976,0 -0.080374,-0.0790748 -0.176035,-0.115902 -0.301043,-0.115902z" id="id_102" style="fill: rgb(183, 157, 237);"></path>
  <path class="fil2" d="M1.18024 0.855075c-0.161614,0 -0.293106,0.131492 -0.293106,0.293106 0,0.302465 0.308295,0.616886 0.612858,0.921587 0.304587,-0.304701 0.612866,-0.619106 0.612866,-0.921587 0,-0.16161 -0.131488,-0.293106 -0.293091,-0.293106 -0.137098,0 -0.211783,0.0567953 -0.295921,0.225087 -0.00451575,0.00902756 -0.013748,0.0147323 -0.0238622,0.0147323l0 0c-0.0101063,0 -0.0193307,-0.00570472 -0.0238425,-0.014748 -0.0841339,-0.168276 -0.158803,-0.225071 -0.295902,-0.225071z" id="id_103" style="fill: rgb(255, 255, 255);"></path>
  <path class="fil2" d="M1.49999 2.13413c-0.00707087,0 -0.0138622,-0.00279921 -0.0188583,-0.0078189l0.0188583 -0.0188425 -0.0189016 0.0187992c-0.318224,-0.31824 -0.647283,-0.647307 -0.647283,-0.978098 0,-0.191024 0.155409,-0.346429 0.346433,-0.346429 0.162138,0 0.247094,0.0788898 0.319752,0.20924 0.0726535,-0.13035 0.157642,-0.20924 0.319768,-0.20924 0.191024,0 0.346413,0.155406 0.346413,0.346429 0,0.330807 -0.329083,0.65989 -0.647335,0.978142 -0.00498819,0.00501181 -0.0117795,0.0078189 -0.0188465,0.0078189z" id="id_104" style="fill: rgb(255, 255, 255);"></path>
 </g>
</svg>