<!DOCTYPE svg PUBLIC "-//W3C//DTD SVG 1.1//EN" "http://www.w3.org/Graphics/SVG/1.1/DTD/svg11.dtd">

<!-- Uploaded to: SVG Repo, www.svgrepo.com, Transformed by: SVG Repo Mixer Tools -->
<svg height="800px" width="800px" version="1.1" id="Layer_1" xmlns="http://www.w3.org/2000/svg" xmlns:xlink="http://www.w3.org/1999/xlink" viewBox="0 0 512 512" xml:space="preserve" fill="#000000" transform="matrix(-1, 0, 0, 1, 0, 0)">

<g id="SVGRepo_bgCarrier" stroke-width="0"/>

<g id="SVGRepo_tracerCarrier" stroke-linecap="round" stroke-linejoin="round"/>

<g id="SVGRepo_iconCarrier"> <path style="fill:#FFE49C;" d="M373.029,43.886c-49.137,0-92.317,25.503-117.029,63.993 c-24.712-38.489-67.891-63.993-117.029-63.993C62.22,43.886,0,106.105,0,182.857c0,90.699,67.291,141.41,134.583,194.073 C194.493,423.816,256,468.114,256,468.114s61.509-44.298,121.417-91.184C444.709,324.267,512,273.556,512,182.857 C512,106.105,449.78,43.886,373.029,43.886z"/> <path style="fill:#f59d00;" d="M256,107.878c-24.712-38.489-67.891-63.993-117.029-63.993C62.22,43.886,0,106.105,0,182.857 c0,90.699,67.291,141.41,134.583,194.073C194.493,423.816,256,468.114,256,468.114S256,225.28,256,107.878z"/> </g>

</svg>