<?xml version="1.0" encoding="utf-8"?>
<svg viewBox="0 0 500 500" xmlns="http://www.w3.org/2000/svg">
  <g transform="matrix(1, 0, 0, 1, 10.856169, 41.093151)">
    <path d="M145.622,314.857c7.075-2.046,12.189-10.938,10.523-18.297c-5.023-22.186,8.212-31.016,16.971-36.859   c6.68-4.457,9.204-6.528,9.204-10.637c0-3.233-1.013-5.523-3.284-7.425c-8.597-7.202-30.11-6.277-41.579-4.878   c-5.378,15.776-14.323,30.167-26.145,41.983C123.086,309.143,136.608,317.46,145.622,314.857z" style="fill: #fffdf9;"/>
    <path d="M56.77,344.733c-11.317-9.379-22.351-13.541-27.295-15.066l-4.105,2.329c-23.1,13.105-31.952,42.009-20.154,65.803   c11.743,23.679,40.009,34.171,64.351,23.884c6.471-2.734,13.655-5.742,21.284-8.889C87.242,383.377,75.794,360.498,56.77,344.733z" style="fill: #fffdf9;"/>
    <path d="M262.283,12.248C262.283,5.494,256.789,0,250.036,0h-94.518c-6.753,0-12.248,5.494-12.248,12.248v28.555h119.013V12.248z" style="fill: #fffdf9;"/>
    <path d="M192.148,318.08l16.723-9.488c5.831-35.091,25.883-60.176,58.348-73.102c-2.915-9.343-4.936-19.195-4.936-29.973v-3.444   c-2.497,1.95-5.234,4.001-8.134,6.035c-15.877,11.034-29.754,16.051-41.731,15.345c-6.914-1.254-12.286-5.42-15.535-12.049   c-6.116-12.475,1.448-22.102,6.971-29.131c6.999-8.908,9.093-12.393,2.68-20.348c-8.324-10.325-9.738-22.208-3.783-31.787   c8.782-14.124,30.214-19.221,59.532-14.434V56.803H143.271v144.949c0,6.251-0.546,12.428-1.593,18.477   c13.65-1.13,35.505-1.014,47.632,9.144c5.895,4.938,9.01,11.747,9.01,19.691c0,13.055-9.435,19.35-16.324,23.946   c-8.278,5.523-12.838,8.565-10.245,20.017c3.562,15.735-6.367,32.771-21.683,37.2c-2.525,0.73-5.095,1.091-7.677,1.091   c-7.584,0-15.275-3.114-22.26-9.123c-8.165-7.025-15.421-17.934-21.64-32.502l-51.276,29.909   c5.704,2.807,12.318,6.748,19.044,12.219c15.259,12.411,33.905,35.227,39.869,74.728c17.396-7.039,36.061-14.338,53.375-20.6   C155.28,359.411,167.62,331.996,192.148,318.08z M180.999,107.806c-7.548,0-13.667-6.119-13.667-13.667s6.119-13.667,13.667-13.667   s13.667,6.119,13.667,13.667S188.547,107.806,180.999,107.806z" style="fill: #fffdf9;"/>
    <path d="M436.957,12.248C436.957,5.494,431.462,0,424.709,0h-94.517c-6.753,0-12.248,5.494-12.248,12.248v28.555h119.013V12.248z" style="fill: #fffdf9;"/>
    <path d="M227.856,297.821l27.09-15.369c8.809-4.998,16.596-11.338,23.18-18.67l-5.457-13.237   C249.976,259.7,234.966,275.545,227.856,297.821z" style="fill: #fffdf9;"/>
    <path d="M320.296,314.857c7.075-2.047,12.189-10.938,10.523-18.297c-5.023-22.186,8.212-31.016,16.97-36.859   c6.68-4.457,9.204-6.528,9.204-10.637c0-3.233-1.013-5.523-3.284-7.425c-8.597-7.202-30.111-6.277-41.579-4.878   c-5.378,15.776-14.323,30.167-26.145,41.983C297.76,309.143,311.28,317.462,320.296,314.857z" style="fill: #fffdf9;"/>
    <path d="M385.923,204.361c1.238,2.525,2.665,3.102,4.021,3.349c10.373,1.884,32.797-13.625,47.013-26.404v-49.359   c-25.896-4.684-41.645-0.273-45.943,6.641c-3.057,4.917,0.349,10.441,2.651,13.296c14.731,18.274,3.91,32.046-2.556,40.275   C385.453,199.357,384.532,201.524,385.923,204.361z" style="fill: #fffdf9;"/>
    <path d="M450.844,259.064c-0.256-0.616-0.513-1.234-0.77-1.852c-19.66,6.235-33.944,17.208-42.478,32.717   c-15.266,27.742-8.936,63.316-5.435,77.551c53.596-8.134,61.832-39.798,61.832-58.44   C463.993,290.649,457.606,275.307,450.844,259.064z" style="fill: #fffdf9;"/>
    <path d="M444.187,242.295c-4.1-11.356-7.229-23.35-7.229-36.777v-3.444c-2.497,1.95-5.234,4.001-8.134,6.035   c-16.348,12.838-29.805,16.516-41.731,15.345c-6.914-1.254-12.286-5.42-15.535-12.049c-6.116-12.475,1.448-22.102,6.971-29.131   c6.999-8.908,9.093-12.393,2.68-20.348c-8.324-10.325-9.738-22.208-3.783-31.787c8.782-14.124,30.214-19.221,59.532-14.434V56.803   H317.944v144.949c0,6.251-0.546,12.428-1.593,18.477c13.65-1.13,35.506-1.014,47.632,9.144c5.895,4.938,9.01,11.747,9.01,19.691   c0,13.055-9.435,19.35-16.324,23.946c-8.278,5.523-12.838,8.565-10.245,20.017c3.563,15.735-6.367,32.771-21.683,37.2   c-2.525,0.73-5.095,1.091-7.677,1.091c-7.584,0-15.275-3.113-22.259-9.123c-8.165-7.025-15.422-17.934-21.641-32.502   l-51.276,29.909c5.704,2.807,12.318,6.748,19.044,12.219c15.258,12.41,33.903,35.225,39.868,74.723   c39.765-16.095,81.185-31.507,105.445-36.652c-4.112-17.175-10.214-55.704,7.287-87.595   C403.97,263.28,420.998,249.863,444.187,242.295z M355.673,107.806c-7.548,0-13.667-6.119-13.667-13.667   s6.119-13.667,13.667-13.667s13.667,6.119,13.667,13.667S363.221,107.806,355.673,107.806z" style="fill: #fffdf9;"/>
    <path d="M231.444,344.733c-11.317-9.379-22.351-13.541-27.295-15.066l-4.105,2.329c-23.1,13.105-31.952,42.009-20.154,65.803   c11.742,23.679,40.008,34.171,64.351,23.884c6.871-2.903,14.006-5.888,21.283-8.892   C261.915,383.375,250.468,360.497,231.444,344.733z" style="fill: #fffdf9;"/>
    <path d="M211.249,204.361c1.238,2.525,2.665,3.102,4.021,3.349c10.371,1.884,32.797-13.624,47.013-26.404v-49.359   c-25.896-4.684-41.645-0.273-45.943,6.641c-3.057,4.917,0.349,10.441,2.651,13.296c14.731,18.274,3.91,32.046-2.556,40.275   C210.779,199.357,209.858,201.524,211.249,204.361z" style="fill: #fffdf9;"/>
  </g>
  <text x="-65.886" y="443.398" fill="#000000" font-size="5px" font-weight="bold" font-family="'Helvetica Neue', Helvetica, Arial-Unicode, Arial, Sans-serif" style="white-space: pre; font-size: 5px;">Created by Amethyst Studio</text>
  <text x="-65.886" y="448.398" fill="#000000" font-size="5px" font-weight="bold" font-family="'Helvetica Neue', Helvetica, Arial-Unicode, Arial, Sans-serif" style="white-space: pre; font-size: 5px;">from the Noun Project</text>
</svg>